<?xml version="1.0" standalone="no"?>
<!DOCTYPE svg PUBLIC "-//W3C//DTD SVG 20010904//EN"
 "http://www.w3.org/TR/2001/REC-SVG-20010904/DTD/svg10.dtd">
<svg version="1.0" xmlns="http://www.w3.org/2000/svg"
 width="512.000000pt" height="512.000000pt" viewBox="0 0 512.000000 512.000000"
 preserveAspectRatio="xMidYMid meet">
<metadata>
Created by potrace 1.14, written by Peter Selinger 2001-2017
</metadata>
<g transform="translate(0.000000,512.000000) scale(0.100000,-0.100000)"
fill="#000000" stroke="none">
<path d="M2190 3939 c-431 -38 -670 -141 -762 -327 l-33 -67 0 -850 0 -850 22
-55 c34 -84 77 -146 125 -180 l43 -31 5 -174 c5 -175 5 -175 33 -202 26 -27
32 -28 127 -28 95 0 101 1 127 28 27 26 28 32 31 147 l4 120 648 0 648 0 4
-120 c3 -115 4 -121 31 -147 26 -27 32 -28 127 -28 95 0 101 1 127 28 l28 27
4 173 3 172 51 40 c31 25 63 63 83 100 66 121 65 94 62 1006 l-3 824 -32 65
c-94 192 -330 292 -776 329 -146 13 -585 12 -727 0z m833 -233 c213 -33 354
-78 444 -142 l48 -34 -954 0 -955 0 30 31 c66 70 202 118 403 144 176 22 192
23 546 20 243 -2 358 -7 438 -19z m487 -716 l0 -320 -950 0 -950 0 0 320 0
320 950 0 950 0 0 -320z m-2 -807 c-3 -260 -4 -269 -27 -313 -41 -78 -79 -118
-143 -149 l-61 -31 -716 0 -716 0 -51 24 c-63 29 -116 81 -152 149 l-27 52 -3
268 -3 267 951 0 951 0 -3 -267z"/>
<path d="M1887 2241 c-105 -68 -123 -223 -35 -308 89 -86 214 -82 295 10 62
71 65 178 7 254 -59 78 -181 98 -267 44z"/>
<path d="M3028 2250 c-49 -26 -85 -75 -99 -136 -35 -153 124 -289 269 -228
151 63 171 268 35 355 -39 24 -57 29 -107 29 -41 -1 -74 -7 -98 -20z"/>
</g>
</svg>
